# xmcd CD database file
#
# Track frame offsets:
#	150
#	14026
#	28212
#	42057
#	57184
#	71293
#	90559
#	106054
#	119890
#	134492
#	148598
#	165660
#	180165
#	194835
#
# Disc length: 2798 seconds
#
# Revision: 0
# Processed by: cddbd v1.5.2PL0 Copyright (c) Steve Scherf et al.
# Submitted via: CDex 1.70beta2
#
DISCID=c70aec0e
DTITLE=Glenn Rogers - Coloursilde
DYEAR=1900
DGENRE=Country
TTITLE0=Colourslide
TTITLE1=Never Stop Me Loving You
TTITLE2=Love Train
TTITLE3=Ferry 'Cross The Mersey
TTITLE4=Dreamin'
TTITLE5=Cha Cha Cuba
TTITLE6=The Wanderer
TTITLE7=Never Fall In Love Again
TTITLE8=Why Me
TTITLE9=Never Be Anyone Else
TTITLE10=Devil Woman
TTITLE11=Just Walk On By
TTITLE12=Constantly
TTITLE13=Build Me Up Buttercup
EXTD=
EXTT0=
EXTT1=
EXTT2=
EXTT3=
EXTT4=
EXTT5=
EXTT6=
EXTT7=
EXTT8=
EXTT9=
EXTT10=
EXTT11=
EXTT12=
EXTT13=
PLAYORDER=
